<svg width="157" height="148" viewBox="0 0 157 148" fill="none" xmlns="http://www.w3.org/2000/svg">
<path d="M55.1142 18.8226L35.638 15.3405C29.7218 14.2907 24.146 17.568 23.1774 22.6889L0.874023 142.005L31.0569 147.407C36.973 148.457 42.5489 145.179 43.5175 140.059L64.1193 30.0117C65.0879 24.8908 61.0565 19.8724 55.1403 18.8226H55.1142Z" fill="#FFBE1C"/>
<path d="M126.303 1.02862C120.351 -0.0502703 114.763 3.26347 113.801 8.45243L106.134 49.9127L97.4266 96.8959L92.6902 128.975C91.7286 134.138 95.7832 139.199 101.709 140.278L121.255 143.823C127.207 144.902 132.795 141.588 133.757 136.399L156.609 6.50015L126.303 1.02862Z" fill="url(#paint0_linear_303_4895)" style="mix-blend-mode:darken"/>
<path d="M100.244 103.407C107.963 102.329 115.37 99.5286 121.972 95.0846C133.201 87.5066 140.712 76.1012 143.155 62.949L153.162 8.92729L126.573 4.12365C122.44 3.3787 118.489 6.07594 117.736 10.1603L109.107 56.8096C107.999 62 102.817 67.9067 97.3325 69.5251C94.9673 70.2187 92.4721 70.2187 90.0549 69.782L72.3288 66.571C43.9983 61.4591 16.8634 79.9801 11.6651 107.98L5.99902 138.574L30.7947 143.07C35.7331 143.969 40.4375 140.732 41.3472 135.877L45.3759 114.094C47.1433 104.512 56.4482 98.1414 66.1689 99.9139L83.895 103.125C89.3792 104.127 94.8893 104.204 100.244 103.433" fill="url(#paint1_linear_303_4895)"/>
<defs>
<linearGradient id="paint0_linear_303_4895" x1="111.086" y1="151.744" x2="140.369" y2="-1.07785" gradientUnits="userSpaceOnUse">
<stop offset="0.227699" stop-color="#0046CF"/>
<stop offset="0.779809" stop-color="#00B3FF"/>
</linearGradient>
<linearGradient id="paint1_linear_303_4895" x1="41.0353" y1="131.87" x2="149.187" y2="-9.84615" gradientUnits="userSpaceOnUse">
<stop stop-color="#FF2E47"/>
<stop offset="0.23" stop-color="#FF166A"/>
<stop offset="0.431145" stop-color="#D613B1"/>
<stop offset="0.697287" stop-color="#1C7FFF"/>
<stop offset="0.91" stop-color="#00DEFF"/>
</linearGradient>
</defs>
</svg>
