<svg width="45" height="45" viewBox="0 0 45 45" fill="none" xmlns="http://www.w3.org/2000/svg">
<rect width="45" height="45" rx="7.5" fill="#FFBE1C"/>
<g clip-path="url(#clip0_1335_9245)">
<path d="M34.2072 37.0161H11.4481C10.9214 37.0161 10.5 36.5965 10.5 36.0843V6.93179C10.5 6.41958 10.9269 6 11.4481 6H28.8071L35.1553 12.2392V36.0843C35.1553 36.602 34.7284 37.0161 34.2072 37.0161Z" fill="white"/>
<path d="M29.849 12.2392H35.1548L32.0556 9.04603L28.8066 6V11.2148C28.8066 11.7815 29.2724 12.2392 29.849 12.2392Z" fill="#696969"/>
<path d="M31 26C32.6569 26 34 24.6569 34 23C34 21.3431 32.6569 20 31 20C29.3431 20 28 21.3431 28 23C28 24.6569 29.3431 26 31 26Z" fill="#0058D1"/>
<path d="M31.4926 36C33.6837 36 35.6454 34.9749 36.963 33.3572C36.9852 33.1509 37 32.9445 37 32.7382C37 29.5695 34.535 27 31.5 27C28.465 27 26 29.5695 26 32.7382C26 32.9445 26.0148 33.1575 26.037 33.3572C27.3546 34.9682 29.3163 36 31.5074 36H31.4926Z" fill="#0058D1"/>
<path d="M26.3682 14.9475H14.0156V16.5005H26.3682V14.9475Z" fill="#696969"/>
<path d="M26.3682 19.3611H14.0156V20.9141H26.3682V19.3611Z" fill="#696969"/>
<path d="M26.3682 23.7749H14.0156V25.3279H26.3682V23.7749Z" fill="#696969"/>
<path d="M22.6203 28.1887H14.0156V29.7417H22.6203V28.1887Z" fill="#696969"/>
</g>
<defs>
<clipPath id="clip0_1335_9245">
<rect width="27.1391" height="31.0161" fill="white" transform="translate(10.5 6)"/>
</clipPath>
</defs>
</svg>
