<svg width="45" height="45" viewBox="0 0 45 45" fill="none" xmlns="http://www.w3.org/2000/svg">
<rect width="45" height="45" rx="7.5" fill="#FFDA7D"/>
<g clip-path="url(#clip0_303_4674)">
<path d="M34.2074 37.0161H11.4482C10.9215 37.0161 10.5002 36.5965 10.5002 36.0843V6.93179C10.5002 6.41958 10.9271 6 11.4482 6H28.8073L35.1555 12.2392V36.0843C35.1555 36.602 34.7286 37.0161 34.2074 37.0161Z" fill="white"/>
<path d="M29.849 12.2392H35.1548L32.0556 9.04603L28.8066 6V11.2148C28.8066 11.7815 29.2724 12.2392 29.849 12.2392Z" fill="#FFBE1C"/>
<path d="M33.5192 21.8132C34.8696 21.8132 35.9642 20.7373 35.9642 19.4101C35.9642 18.083 34.8696 17.0071 33.5192 17.0071C32.1689 17.0071 31.0742 18.083 31.0742 19.4101C31.0742 20.7373 32.1689 21.8132 33.5192 21.8132Z" fill="#0058D1"/>
<path d="M33.5201 29.4038C35.1612 29.4038 36.6304 28.5646 37.6173 27.2405C37.6339 27.0716 37.645 26.9026 37.645 26.7337C37.645 24.14 35.7988 22.0366 33.5256 22.0366C31.2525 22.0366 29.4062 24.14 29.4062 26.7337C29.4062 26.9026 29.4173 27.077 29.434 27.2405C30.4208 28.5592 31.8901 29.4038 33.5312 29.4038H33.5201Z" fill="#0058D1"/>
<path d="M26.3682 14.9475H14.0156V16.5005H26.3682V14.9475Z" fill="#FFBE1C"/>
<path d="M26.3682 19.3611H14.0156V20.9141H26.3682V19.3611Z" fill="#FFBE1C"/>
<path d="M26.3682 23.7749H14.0156V25.3279H26.3682V23.7749Z" fill="#FFBE1C"/>
<path d="M22.6203 28.1887H14.0156V29.7417H22.6203V28.1887Z" fill="#FFBE1C"/>
</g>
<defs>
<clipPath id="clip0_303_4674">
<rect width="27.1391" height="31.0161" fill="white" transform="translate(10.5 6)"/>
</clipPath>
</defs>
</svg>
