<svg width="45" height="45" viewBox="0 0 45 45" fill="none" xmlns="http://www.w3.org/2000/svg">
<rect width="45" height="45" rx="5" fill="#FFBE1C"/>
<path fill-rule="evenodd" clip-rule="evenodd" d="M23.8746 18C23.8746 16.2741 25.2737 14.875 26.9996 14.875C28.7255 14.875 30.1246 16.2741 30.1246 18C30.1246 19.7259 28.7255 21.125 26.9996 21.125C25.2737 21.125 23.8746 19.7259 23.8746 18ZM26.9996 17.375C26.6544 17.375 26.3746 17.6548 26.3746 18C26.3746 18.3452 26.6544 18.625 26.9996 18.625C27.3448 18.625 27.6246 18.3452 27.6246 18C27.6246 17.6548 27.3448 17.375 26.9996 17.375Z" fill="white"/>
<path fill-rule="evenodd" clip-rule="evenodd" d="M20.4217 15.5C23.5293 11.6521 28.2767 9.25 33.4972 9.25H35.7496V11.5025C35.7496 16.7229 33.3475 21.4703 29.4996 24.5779V25.3762C29.4996 29.6782 26.4632 33.3821 22.2448 34.2257L20.7496 34.5248V27.2678L17.7319 24.25H10.4749L10.7739 22.7549C11.6176 18.5365 15.3215 15.5 19.6234 15.5H20.4217ZM18.7151 18.0631C16.5229 18.3698 14.646 19.7717 13.7172 21.75H17.2568C17.601 20.4474 18.094 19.2127 18.7151 18.0631ZM19.6193 22.6019L22.3977 25.3803C28.6647 23.8264 33.1354 18.2417 33.2475 11.7522C26.7579 11.8642 21.1732 16.335 19.6193 22.6019ZM23.2496 27.7428V31.2824C25.2279 30.3536 26.6298 28.4768 26.9365 26.2845C25.7869 26.9056 24.5523 27.3987 23.2496 27.7428Z" fill="white"/>
<path fill-rule="evenodd" clip-rule="evenodd" d="M10.1527 29.5916C10.7184 27.8946 12.3064 26.75 14.0951 26.75C16.3903 26.75 18.2508 28.6106 18.2508 30.9057C18.2508 32.6944 17.1062 34.2825 15.4093 34.8481L7.52441 37.4764L10.1527 29.5916ZM14.0951 29.25C13.3825 29.25 12.7498 29.706 12.5244 30.3821L11.4773 33.5236L14.6187 32.4764C15.2948 32.2511 15.7508 31.6184 15.7508 30.9057C15.7508 29.9913 15.0096 29.25 14.0951 29.25Z" fill="white"/>
</svg>
