<svg width="45" height="45" viewBox="0 0 45 45" fill="none" xmlns="http://www.w3.org/2000/svg">
<rect width="45" height="45" rx="7.5" fill="#49CCF9"/>
<path fill-rule="evenodd" clip-rule="evenodd" d="M22.9997 8.07007L36.8236 15.75L31.1986 18.875L36.8236 22L31.1986 25.125L36.8236 28.25L22.9997 35.93L9.17578 28.25L14.8008 25.125L9.17578 22L14.8008 18.875L9.17578 15.75L22.9997 8.07007ZM17.3747 20.305L14.3236 22L22.9997 26.8201L31.6758 22L28.6247 20.305L22.9997 23.43L17.3747 20.305ZM17.3747 26.555L14.3236 28.25L22.9997 33.0701L31.6758 28.25L28.6247 26.555L22.9997 29.68L17.3747 26.555ZM14.3236 15.75L22.9997 20.5701L31.6758 15.75L22.9997 10.93L14.3236 15.75Z" fill="black"/>
</svg>
