<svg width="45" height="45" viewBox="0 0 45 45" fill="none" xmlns="http://www.w3.org/2000/svg">
<rect width="45" height="45" rx="7.5" fill="#49CCF9"/>
<path fill-rule="evenodd" clip-rule="evenodd" d="M23.0002 8.07007L36.8241 15.75L31.1991 18.875L36.8241 22L31.1991 25.125L36.8241 28.25L23.0002 35.93L9.17627 28.25L14.8013 25.125L9.17627 22L14.8013 18.875L9.17627 15.75L23.0002 8.07007ZM17.3752 20.305L14.3241 22L23.0002 26.8201L31.6763 22L28.6252 20.305L23.0002 23.43L17.3752 20.305ZM17.3752 26.555L14.3241 28.25L23.0002 33.0701L31.6763 28.25L28.6252 26.555L23.0002 29.68L17.3752 26.555ZM14.3241 15.75L23.0002 20.5701L31.6763 15.75L23.0002 10.93L14.3241 15.75Z" fill="black"/>
</svg>
