<svg width="508" height="96" viewBox="0 0 508 96" fill="none" xmlns="http://www.w3.org/2000/svg">
<path d="M41.6625 15.1786L31.7299 13.4028C28.7127 12.8674 25.8691 14.5388 25.3752 17.1504L14.0007 77.9997L29.3936 80.7549C32.4107 81.2903 35.2544 79.6189 35.7483 77.0074L46.255 20.8849C46.7489 18.2733 44.693 15.714 41.6758 15.1786H41.6625Z" fill="#FFBE1C"/>
<path d="M77.9677 6.10387C74.9323 5.55365 72.0824 7.24361 71.592 9.88991L67.6817 31.0341L63.2412 54.9949L60.8257 71.3549C60.3352 73.9881 62.403 76.5689 65.4252 77.1191L75.3932 78.927C78.4286 79.4772 81.2785 77.7872 81.7689 75.1409L93.4233 8.89427L77.9677 6.10387Z" fill="url(#paint0_linear_303_4873)" style="mix-blend-mode:darken"/>
<path d="M64.435 58.5453C68.3718 57.9951 72.1496 56.5672 75.5164 54.3008C81.2426 50.4361 85.0734 44.6195 86.3194 37.9121L91.4226 10.3617L77.8625 7.91194C75.755 7.53202 73.7402 8.90758 73.3558 10.9906L68.955 34.781L68.7297 35.947C67.8681 38.423 65.7473 40.4405 62.9504 41.2658C61.7442 41.6195 60.4717 41.6195 59.239 41.3968L50.1989 39.7592C35.7507 37.1522 21.9123 46.5977 19.2612 60.8772L16.3716 76.4799L29.0171 78.7725C31.5356 79.231 33.9347 77.5804 34.3987 75.1044L36.4532 63.9951C37.3546 59.1087 42.1 55.8597 47.0574 56.7637L56.0975 58.4012C58.8943 58.9122 61.7044 58.9515 64.435 58.5584" fill="url(#paint1_linear_303_4873)"/>
<defs>
<linearGradient id="paint0_linear_303_4873" x1="70.2071" y1="82.9668" x2="85.1414" y2="5.0296" gradientUnits="userSpaceOnUse">
<stop offset="0.227699" stop-color="#0046CF"/>
<stop offset="0.779809" stop-color="#00B3FF"/>
</linearGradient>
<linearGradient id="paint1_linear_303_4873" x1="34.2396" y1="73.0607" x2="89.3954" y2="0.787525" gradientUnits="userSpaceOnUse">
<stop stop-color="#FF2E47"/>
<stop offset="0.23" stop-color="#FF166A"/>
<stop offset="0.431145" stop-color="#D613B1"/>
<stop offset="0.697287" stop-color="#1C7FFF"/>
<stop offset="0.91" stop-color="#00DEFF"/>
</linearGradient>
</defs>
</svg>
