<svg width="508" height="96" viewBox="0 0 508 96" fill="none" xmlns="http://www.w3.org/2000/svg">
<g style="mix-blend-mode:multiply">
<path d="M99.6699 26.8022C99.6699 23.1302 102.787 20.1335 106.645 20.1335C110.503 20.1335 113.635 23.1302 113.635 26.8022C113.635 30.4742 110.517 33.6256 106.645 33.6256C102.773 33.6256 99.6699 30.629 99.6699 26.8022ZM100.424 38.0574H112.567V72.681H100.424V38.0574Z" fill="#212121"/>
<path d="M145.367 33.9072V45.1624C137.167 43.8117 133.224 47.2586 133.224 56.7129V72.6952H121.082V34.4418H133.224V39.6192C135.502 35.497 139.673 33.1756 145.367 33.9213V33.9072Z" fill="#212121"/>
<path d="M149.763 25.9018C149.763 22.2298 152.881 19.2332 156.739 19.2332C160.596 19.2332 163.728 22.2298 163.728 25.9018C163.728 29.5738 160.611 32.7253 156.739 32.7253C152.867 32.7253 149.763 29.7286 149.763 25.9018ZM150.518 37.157H162.66V72.6951H150.518V37.157Z" fill="#212121"/>
<path d="M209.874 50.4099V72.681H197.732V52.8016C197.732 47.779 195.611 44.4728 190.828 44.4728C186.045 44.4728 183.312 48.1448 183.312 53.9974V72.681H171.169V34.4276H183.312V38.4091C185.888 35.4827 189.76 33.3865 194.771 33.3865C205.091 33.3865 209.874 40.2943 209.874 50.4099Z" fill="#212121"/>
<path d="M257.379 34.4276V71.26C257.379 81.9805 249.493 89.4933 237.037 89.4933C227.4 89.4933 221.478 85.2164 218.289 79.5185L228.766 75.7621C230.432 78.3085 233.165 79.7436 237.336 79.7436C242.731 79.7436 245.222 76.1419 245.222 71.3444V67.6724C242.418 70.6691 238.774 72.2448 234.517 72.2448C223.514 72.2448 215.613 63.6909 215.613 52.8157C215.613 41.1947 223.5 33.3865 234.517 33.3865C238.774 33.3865 242.404 34.9622 245.222 37.9589V34.4276H257.365H257.379ZM245.535 52.8016C245.535 47.5539 241.962 44.107 236.653 44.107C231.343 44.107 227.628 47.5539 227.628 52.8016C227.628 58.0493 231.272 61.4962 236.653 61.4962C242.034 61.4962 245.535 58.0493 245.535 52.8016Z" fill="#212121"/>
<path d="M312.745 57.6833C312.745 67.1376 305.684 72.6808 294.154 72.6808H266.837V20.1755H292.787C303.634 20.1755 310.852 25.9438 310.852 34.4274C310.852 39.3093 308.417 42.9813 304.474 45.2323C309.485 47.6381 312.745 51.915 312.745 57.6833ZM279.122 30.8257V41.3211H292.787C296.132 41.3211 298.552 38.9153 298.552 35.9187C298.552 32.922 296.118 30.7413 292.787 30.8116H279.122V30.8257ZM300.218 56.4734C300.218 53.2516 298.012 51.0709 294.14 51.0709H279.107V61.9462H294.14C298.012 61.9462 300.218 59.5404 300.218 56.4734Z" fill="#212121"/>
<path d="M357.225 34.4277V72.6811H345.082V68.6996C342.506 71.626 338.634 73.7222 333.623 73.7222C323.303 73.7222 318.52 66.8285 318.52 56.6988V34.4277H330.662V54.3071C330.662 59.3297 332.783 62.6359 337.566 62.6359C342.349 62.6359 345.082 58.9639 345.082 53.1113V34.4277H357.225Z" fill="#212121"/>
<path d="M405.495 17.9248V72.6811H393.352V69.1498C390.69 71.9213 386.975 73.7222 382.192 73.7222C371.715 73.7222 363.373 65.1683 363.373 53.5473C363.373 41.9264 371.715 33.3725 382.192 33.3725C386.975 33.3725 390.69 35.103 393.352 37.9449V17.9248H405.495ZM393.651 53.477C393.651 47.7791 389.623 44.0227 384.399 44.0227C379.174 44.0227 375.373 47.7791 375.373 53.477C375.373 59.1749 379.174 63.072 384.399 63.072C389.623 63.072 393.651 59.2452 393.651 53.477Z" fill="#212121"/>
<path d="M450.591 17.9248V72.6811H438.449V69.1498C435.787 71.9213 432.071 73.7222 427.288 73.7222C416.811 73.7222 408.469 65.1683 408.469 53.5473C408.469 41.9264 416.811 33.3725 427.288 33.3725C432.071 33.3725 435.787 35.103 438.449 37.9449V17.9248H450.591ZM438.747 53.477C438.747 47.7791 434.719 44.0227 429.495 44.0227C424.27 44.0227 420.47 47.7791 420.47 53.477C420.47 59.1749 424.27 63.072 429.495 63.072C434.719 63.072 438.747 59.2452 438.747 53.477Z" fill="#212121"/>
<path d="M500.303 34.4277L477.313 88.4383H464.943L471.847 71.7807L454.466 34.4277H467.747L477.84 57.754L487.32 34.4277H500.303Z" fill="#212121"/>
</g>
<path d="M41.6625 15.1786L31.7299 13.4028C28.7127 12.8674 25.8691 14.5388 25.3752 17.1504L14.0007 77.9997L29.3936 80.7549C32.4107 81.2903 35.2544 79.6189 35.7483 77.0074L46.255 20.8849C46.7489 18.2733 44.693 15.714 41.6758 15.1786H41.6625Z" fill="#FFBE1C"/>
<path d="M77.9677 6.10387C74.9323 5.55365 72.0824 7.24361 71.592 9.88991L67.6817 31.0341L63.2412 54.9949L60.8257 71.3549C60.3352 73.9881 62.403 76.5689 65.4252 77.1191L75.3932 78.927C78.4286 79.4772 81.2785 77.7872 81.7689 75.1409L93.4233 8.89427L77.9677 6.10387Z" fill="url(#paint0_linear_303_4873)" style="mix-blend-mode:darken"/>
<path d="M64.435 58.5453C68.3718 57.9951 72.1496 56.5672 75.5164 54.3008C81.2426 50.4361 85.0734 44.6195 86.3194 37.9121L91.4226 10.3617L77.8625 7.91194C75.755 7.53202 73.7402 8.90758 73.3558 10.9906L68.955 34.781L68.7297 35.947C67.8681 38.423 65.7473 40.4405 62.9504 41.2658C61.7442 41.6195 60.4717 41.6195 59.239 41.3968L50.1989 39.7592C35.7507 37.1522 21.9123 46.5977 19.2612 60.8772L16.3716 76.4799L29.0171 78.7725C31.5356 79.231 33.9347 77.5804 34.3987 75.1044L36.4532 63.9951C37.3546 59.1087 42.1 55.8597 47.0574 56.7637L56.0975 58.4012C58.8943 58.9122 61.7044 58.9515 64.435 58.5584" fill="url(#paint1_linear_303_4873)"/>
<defs>
<linearGradient id="paint0_linear_303_4873" x1="70.2071" y1="82.9668" x2="85.1414" y2="5.0296" gradientUnits="userSpaceOnUse">
<stop offset="0.227699" stop-color="#0046CF"/>
<stop offset="0.779809" stop-color="#00B3FF"/>
</linearGradient>
<linearGradient id="paint1_linear_303_4873" x1="34.2396" y1="73.0607" x2="89.3954" y2="0.787525" gradientUnits="userSpaceOnUse">
<stop stop-color="#FF2E47"/>
<stop offset="0.23" stop-color="#FF166A"/>
<stop offset="0.431145" stop-color="#D613B1"/>
<stop offset="0.697287" stop-color="#1C7FFF"/>
<stop offset="0.91" stop-color="#00DEFF"/>
</linearGradient>
</defs>
</svg>
