<svg width="45" height="45" viewBox="0 0 45 45" fill="none" xmlns="http://www.w3.org/2000/svg">
<rect width="45" height="45" rx="5" fill="#C955BF"/>
<path d="M27.6551 23.1852H10.934L9.2885 24.989C8.81383 25.5143 7.94043 25.1788 7.94043 24.4637V12.2551C7.94043 10.926 9.01002 9.85645 10.3391 9.85645H27.6615C28.9842 9.85645 30.0601 10.926 30.0601 12.2551V20.7929C30.0601 22.1156 28.9905 23.1916 27.6615 23.1916L27.6551 23.1852Z" fill="#FFA3F7"/>
<path d="M27.5347 12.4512H11.0225V14.2549H27.5347V12.4512Z" fill="#C955BF"/>
<path d="M27.5347 15.4702H11.0225V17.274H27.5347V15.4702Z" fill="#C955BF"/>
<path d="M23.5728 18.4893H11.0225V20.293H23.5728V18.4893Z" fill="#C955BF"/>
<path d="M18.3019 32.3117H35.023L36.6685 34.1154C37.1432 34.6407 38.0166 34.3053 38.0166 33.5901V21.3816C38.0166 20.0525 36.947 18.9829 35.6179 18.9829H18.2956C16.9728 18.9829 15.8969 20.0525 15.8969 21.3816V29.9193C15.8969 31.2421 16.9665 32.318 18.2956 32.318L18.3019 32.3117Z" fill="#FFF3D1"/>
<path d="M18.4223 21.5776H34.9346V23.3814H18.4223V21.5776Z" fill="#FFBE1C"/>
<path d="M18.4223 24.5967H34.9346V26.4004H18.4223V24.5967Z" fill="#FFBE1C"/>
<path d="M22.3843 27.6152H34.9346V29.419H22.3843V27.6152Z" fill="#FFBE1C"/>
</svg>
